# xmcd CD database file
#
# Track frame offsets:
#	150
#	13047
#	31855
#	44220
#	57927
#	73957
#	90247
#	104945
#	115520
#	129485
#
# Disc length: 1864 seconds
#
# Revision: 0
# Processed by: cddbd v1.5PL3 Copyright (c) Steve Scherf et al.
# Submitted via: CDex 1.51
#
DISCID=8a07460a
DTITLE=John Pizzarelli, Jr. - Hit that jive, Jack!
DYEAR=1985
DGENRE=Jazz
TTITLE0=Hit That jive,  jack!
TTITLE1=Better run before it's spring
TTITLE2=The frim-fram sauce
TTITLE3=Davenport blues
TTITLE4=Racing with the moon
TTITLE5=Nobody's heart
TTITLE6=This will make you laugh
TTITLE7=Haven't we met
TTITLE8=Baby, baby, all the time
TTITLE9=You're nobody till somebody loves you
EXTD=YEAR: 1985
EXTT0=
EXTT1=
EXTT2=
EXTT3=
EXTT4=
EXTT5=
EXTT6=
EXTT7=
EXTT8=
EXTT9=
PLAYORDER=
